<!-- icon666.com - MILLIONS vector ICONS FREE --><svg enable-background="new 0 0 512 512" viewBox="0 0 512 512" xmlns="http://www.w3.org/2000/svg" xmlns:xlink="http://www.w3.org/1999/xlink"><pattern id="New_Pattern_Swatch_1" height="24.92" overflow="visible" patternUnits="userSpaceOnUse" viewBox="0 -24.92 24.91 24.92" width="24.91" x="1232.5" y="1908.115"><g><path d="m0-24.92h24.91v24.92h-24.91z" fill="none"></path><g><path d="m0-24.92h24.91v24.92h-24.91z" fill="#fed480" style="fill: rgb(131, 253, 129);"></path></g></g></pattern><pattern id="New_Pattern_Swatch_2" height="24.92" overflow="visible" patternUnits="userSpaceOnUse" viewBox="0 -24.92 24.91 24.92" width="24.91" x="1232.5" y="1908.115"><g><path d="m0-24.92h24.91v24.92h-24.91z" fill="none"></path><g><path d="m0-24.92h24.91v24.92h-24.91z" fill="#f59977" style="fill: rgb(224, 105, 62);"></path></g></g></pattern><pattern id="New_Pattern_Swatch_3" height="24.92" overflow="visible" patternUnits="userSpaceOnUse" viewBox="0 -24.92 24.91 24.92" width="24.91" x="1232.5" y="1908.115"><g><path d="m0-24.92h24.91v24.92h-24.91z" fill="none"></path><g><path d="m0-24.92h24.91v24.92h-24.91z" fill="#92e6fd" style="fill: rgb(177, 199, 205);"></path></g></g></pattern><pattern id="New_Pattern_Swatch_5" height="24.92" overflow="visible" patternUnits="userSpaceOnUse" viewBox="0 -24.92 24.91 24.92" width="24.91" x="1232.5" y="1908.115"><g><path d="m0-24.92h24.91v24.92h-24.91z" fill="none"></path><g><path d="m0-24.92h24.91v24.92h-24.91z" fill="#021938"></path></g></g></pattern><pattern id="SVGID_1_" patternTransform="matrix(7.731 0 0 7.731 70019.703 76053.43)" xlink:href="#New_Pattern_Swatch_2"></pattern><pattern id="SVGID_2_" patternTransform="matrix(7.731 0 0 7.731 70019.703 76053.43)" xlink:href="#New_Pattern_Swatch_1"></pattern><pattern id="SVGID_3_" patternTransform="matrix(7.731 0 0 7.731 70019.703 76053.43)" xlink:href="#New_Pattern_Swatch_3"></pattern><pattern id="SVGID_4_" patternTransform="matrix(7.731 0 0 7.731 70019.703 76053.43)" xlink:href="#New_Pattern_Swatch_2"></pattern><pattern id="SVGID_5_" patternTransform="matrix(7.731 0 0 7.731 70019.703 76053.43)" xlink:href="#New_Pattern_Swatch_3"></pattern><pattern id="SVGID_6_" patternTransform="matrix(7.731 0 0 7.731 70019.703 76053.43)" xlink:href="#New_Pattern_Swatch_3"></pattern><pattern id="SVGID_7_" patternTransform="matrix(-8.233 6.913 4.601 6.42 -45807.371 133507.219)" xlink:href="#New_Pattern_Swatch_5"></pattern><pattern id="SVGID_8_" patternTransform="matrix(-8.233 6.913 4.601 6.42 -45807.371 133507.219)" xlink:href="#New_Pattern_Swatch_5"></pattern><g id="_x31_3_Body_Care"><g><path d="m282.976 388.933h87.597c-21.88 55.975-55.434 106.771-92.931 106.771-20.797 0-40.436-5.489-57.445-14.844-7.808-4.33-17.396-4.33-25.204 0-17.009 9.355-36.647 14.844-57.445 14.844-65.949 0-119.373-156.329-119.373-222.355 0-65.794 53.424-119.218 119.373-119.218 26.132 0 50.409 8.503 69.97 22.807 19.715-14.304 43.992-22.807 70.124-22.807 61.155 0 111.641 46.156 118.445 105.378 1.856 108.336-56.522 117.406-113.111 129.424z" fill="url(#SVGID_1_)"></path><path d="m127.503 103.596c-23.139-17.968-37.694-47.182-37.951-83.116l-.059-.278c34.881-8.825 66.945-2.187 90.026 15.62 23.139 17.968 37.694 47.182 37.951 83.117l.059.277c-35.108 8.883-66.832 2.16-90.026-15.62z" fill="url(#SVGID_2_)"></path><path d="m493.786 259.544c0 29.75-24.021 53.77-53.693 53.77h-47.521c2.904-15.071 4.396-28.808 4.396-39.954 0-25.041-7.771-48.278-20.959-67.509h64.084c29.673-.001 53.693 24.02 53.693 53.693z" fill="url(#SVGID_3_)"></path><path d="m396.183 259.544v.313c0-.157 0-.235-.079-.313z" fill="url(#SVGID_4_)"></path><path d="m392.572 313.322h47.508c29.672 0 53.693-24.02 53.693-53.771v113.116c0 25.904-20.959 46.864-46.785 46.864h-164.013v-106.217h113.19" fill="url(#SVGID_5_)"></path><path d="m282.975 305.543v121.76c0 3.611-2.983 6.593-6.594 6.593h-30.653c-3.689 0-6.594-2.982-6.594-6.593v-121.76c0-3.612 2.904-6.594 6.594-6.594h30.653c3.611 0 6.594 2.982 6.594 6.594z" fill="url(#SVGID_6_)"></path><path d="m131.884 200.074c-36.403 2.778-65.57 32.319-67.846 68.711-.48 7.678 11.091 8.446 11.574.725 1.918-30.654 26.49-55.532 57.155-57.869 3.194-.245 5.583-3.031 5.342-6.225-.245-3.197-3.103-5.576-6.225-5.342z" fill="url(#SVGID_7_)"></path><path d="m440.095 200.052h-61.215c-22.836-31.484-59.829-51.73-101.228-51.73-23 0-45.09 6.263-64.553 18.071.973-50.854 27.85-85.202 82.077-86.88 3.201-.098 5.715-2.771 5.617-5.972-.094-3.201-2.846-5.825-5.972-5.617-29.179.897-55.221 10.21-72.946 33.417-9.367-67.483-68.051-103.416-133.805-86.76-2.688.68-4.428 3.371-4.319 6.104.581 70.24 53.89 118.404 124.468 106.369-5.219 14.959-6.575 29.374-6.747 38.984-19.272-11.585-41.142-17.717-63.941-17.717-68.99 0-125.118 56.09-125.118 125.039 0 66.147 54.154 228.103 125.118 228.103 21.024 0 41.862-5.38 60.277-15.561 6.033-3.356 13.53-3.36 19.578.004 18.404 10.178 39.242 15.557 60.266 15.557 36.266 0 64.994-41.025 82.943-76.132 42.518-.046 86.406.112 88.677-.115 27.93-1.211 50.3-24.281 50.3-52.548v-112.826c0-.1.015-.197.015-.298-.001-32.806-26.687-59.492-59.492-59.492zm-344.644-175.29c63.494-13.672 113.519 26.193 116.118 89.893-63.009 13.532-113.499-25.716-116.118-89.893zm182.201 465.104c-19.064 0-37.962-4.877-54.645-14.104-9.506-5.281-21.322-5.285-30.82-.004-16.693 9.23-35.592 14.108-54.656 14.108-58.635 0-113.521-148.871-113.521-216.506 0-62.553 50.926-113.442 113.521-113.442 24.149 0 47.177 7.512 66.597 21.726 1.827 1.334 4.499 1.555 6.649.101 4.608-2.353 27.718-21.827 66.874-21.827 57.955 0 106.016 43.565 112.649 100.038 1.905 16.085.252 31.292-2.606 47.566l-98.922-.006v-1.974c0-6.833-5.557-12.394-12.39-12.394h-30.652c-6.833 0-12.394 5.561-12.394 12.394v121.758c0 6.833 5.561 12.394 12.394 12.394h30.654c6.833 0 12.39-5.561 12.39-12.394v-1.971h58.851c-21.878 41.03-46.889 64.537-69.973 64.537zm-.476-184.323v121.758c0 .408-.385.797-.793.797h-30.653c-.498 0-.797-.404-.797-.797v-121.758c0-.393.298-.797.797-.797h30.654c.407 0 .792.389.792.797zm210.798 67.125c0 20.067-14.46 36.753-33.478 40.305v-17.93c0-3.201-2.597-5.799-5.799-5.799s-5.799 2.597-5.799 5.799v18.691h-22.198v-36.913c0-3.201-2.597-5.799-5.799-5.799s-5.799 2.597-5.799 5.799v36.913h-22.194v-18.691c0-3.201-2.597-5.799-5.799-5.799s-5.799 2.597-5.799 5.799v18.691c-2.29 0-22.622 0-21.844 0h-.354c-.501-36.393-.005-20.619 0-36.913 0-3.201-2.597-5.799-5.799-5.799-3.201 0-5.799 2.597-5.799 5.799v36.913h-52.746c-.052-3.957 0-90.662 0-94.619 61.474.003 109.77.005 151.306.008 18.269 0 36.387-8.647 47.895-24.27v77.815zm0-113.117c0 26.388-21.417 47.966-47.88 47.966h-40.582c2.719-16.094 4.205-31.62 2.469-47.681v-.293c0-.091-.049-.168-.053-.258-1.93-17.144-7.44-33.539-15.459-47.637h53.625c26.393 0 47.863 21.455 47.892 47.841 0 .022-.012.04-.012.062z" fill="url(#SVGID_8_)"></path></g></g></svg>